<?xml version="1.0" encoding="UTF-8" standalone="no"?>
<!-- Generator: Adobe Illustrator 23.1.1, SVG Export Plug-In . SVG Version: 6.00 Build 0)  -->

<svg
   xmlns:dc="http://purl.org/dc/elements/1.1/"
   xmlns:cc="http://creativecommons.org/ns#"
   xmlns:rdf="http://www.w3.org/1999/02/22-rdf-syntax-ns#"
   xmlns:svg="http://www.w3.org/2000/svg"
   xmlns="http://www.w3.org/2000/svg"
   xmlns:sodipodi="http://sodipodi.sourceforge.net/DTD/sodipodi-0.dtd"
   xmlns:inkscape="http://www.inkscape.org/namespaces/inkscape"
   version="1.1"
   x="0px"
   y="0px"
   viewBox="0 0 2177.0078 1597.2974"
   xml:space="preserve"
   id="svg157"
   sodipodi:docname="logo.svg"
   width="2177.0078"
   height="1597.2974"
   inkscape:version="0.92.4 (5da689c313, 2019-01-14)"><metadata
   id="metadata163"><rdf:RDF><cc:Work
       rdf:about=""><dc:format>image/svg+xml</dc:format><dc:type
         rdf:resource="http://purl.org/dc/dcmitype/StillImage" /><dc:title></dc:title></cc:Work></rdf:RDF></metadata><defs
   id="defs161" /><sodipodi:namedview
   pagecolor="#ffffff"
   bordercolor="#666666"
   borderopacity="1"
   objecttolerance="10"
   gridtolerance="10"
   guidetolerance="10"
   inkscape:pageopacity="0"
   inkscape:pageshadow="2"
   inkscape:window-width="1920"
   inkscape:window-height="1025"
   id="namedview159"
   showgrid="false"
   fit-margin-top="0"
   fit-margin-left="0"
   fit-margin-right="0"
   fit-margin-bottom="0"
   inkscape:zoom="0.23548233"
   inkscape:cx="703.39129"
   inkscape:cy="1317.2666"
   inkscape:window-x="1920"
   inkscape:window-y="0"
   inkscape:window-maximized="1"
   inkscape:current-layer="svg157" />
<style
   type="text/css"
   id="style2">
	.st0{fill:#30B8A3;}
	.st1{display:none;}
	.st2{display:inline;}
	.st3{fill:#005B9D;}
	.st4{display:inline;fill:#005B9D;}
	.st5{display:inline;fill:none;stroke:#005B9D;stroke-width:5;stroke-miterlimit:10;}
	.st6{fill:#FFFFFF;}
	.st7{fill:none;stroke:#30B8A3;stroke-width:5;stroke-miterlimit:10;}
</style>
<g
   id="Layer_1"
   transform="translate(-1474.5499,-1644.0426)">
	<g
   id="g64">
		<g
   id="g18">
			<path
   class="st0"
   d="m 3226.39,2090.93 c 9.67,58.71 -29.72,112.87 -87.66,122.49 -58.18,9.66 -112.62,-29.46 -122.35,-87.55 -9.71,-57.99 29.61,-112.97 87.65,-122.55 57.95,-9.58 112.82,29.71 122.36,87.61 z"
   id="path4"
   inkscape:connector-curvature="0"
   style="fill:#30b8a3" />
			<path
   class="st0"
   d="m 3320.79,2096.35 c -12.62,2.1 -25.24,4.15 -37.84,6.35 -2.03,0.35 -2.72,-0.02 -3.05,-2.14 -1.9,-12.1 -3.93,-24.19 -6.03,-36.26 -0.34,-1.94 0.07,-2.57 2.05,-2.89 25.56,-4.18 51.11,-8.43 76.64,-12.77 2.2,-0.37 2.44,0.5 2.72,2.21 1.94,11.99 3.9,23.97 6.01,35.93 0.39,2.23 -0.1,2.91 -2.33,3.26 -12.73,2.02 -25.45,4.19 -38.17,6.31 z"
   id="path6"
   inkscape:connector-curvature="0"
   style="fill:#30b8a3" />
			<path
   class="st0"
   d="m 3224.96,1890.59 c -0.28,0.81 -0.47,1.42 -0.69,2.02 -9.08,24.32 -18.18,48.63 -27.18,72.98 -0.74,2 -1.56,1.92 -3.23,1.28 -11.41,-4.39 -22.83,-8.73 -34.3,-12.95 -1.86,-0.68 -2.15,-1.29 -1.45,-3.15 9.12,-24.29 18.18,-48.6 27.14,-72.95 0.77,-2.08 1.55,-2.2 3.39,-1.49 11.3,4.39 22.64,8.68 33.96,13.02 0.83,0.31 1.79,0.47 2.36,1.24 z"
   id="path8"
   inkscape:connector-curvature="0"
   style="fill:#30b8a3" />
			<path
   class="st0"
   d="m 3036.93,1972.49 c 0.4,1.04 -0.57,1.31 -1.06,1.72 -9.65,8.02 -19.38,15.94 -28.96,24.03 -2.04,1.72 -2.51,0.07 -3.39,-0.99 -13.55,-16.49 -27.1,-33 -40.64,-49.5 -2.92,-3.56 -5.79,-7.18 -8.8,-10.66 -1.05,-1.21 -0.89,-1.8 0.28,-2.76 9.69,-7.98 19.38,-15.95 28.92,-24.11 1.96,-1.68 2.46,-0.31 3.36,0.78 10.94,13.36 21.87,26.72 32.81,40.08 5.43,6.63 10.88,13.26 16.31,19.89 0.41,0.5 0.78,1.02 1.17,1.52 z"
   id="path10"
   inkscape:connector-curvature="0"
   style="fill:#30b8a3" />
			<path
   class="st0"
   d="m 3055.25,2340.9 c -0.58,-0.2 -1.19,-0.39 -1.79,-0.62 -11.32,-4.28 -22.63,-8.62 -33.98,-12.82 -1.97,-0.73 -2.65,-1.31 -1.8,-3.55 9.13,-24.27 18.17,-48.57 27.15,-72.9 0.69,-1.88 1.35,-2.04 3.14,-1.35 11.5,4.45 23.03,8.8 34.6,13.06 1.7,0.63 1.97,1.12 1.32,2.86 -9.15,24.39 -18.21,48.81 -27.3,73.21 -0.3,0.77 -0.3,1.76 -1.34,2.11 z"
   id="path12"
   inkscape:connector-curvature="0"
   style="fill:#30b8a3" />
			<path
   class="st0"
   d="m 3205.18,2243.46 c 10.17,-8.44 20.29,-16.73 30.25,-25.21 1.97,-1.68 2.47,-0.26 3.36,0.82 10.88,13.26 21.75,26.53 32.62,39.8 5.5,6.72 10.94,13.49 16.54,20.12 1.4,1.66 1.12,2.46 -0.42,3.73 -9.45,7.75 -18.82,15.59 -28.22,23.4 -0.88,0.73 -1.53,1.63 -2.76,0.12 -17.07,-20.94 -34.2,-41.81 -51.37,-62.78 z"
   id="path14"
   inkscape:connector-curvature="0"
   style="fill:#30b8a3" />
			<path
   class="st0"
   d="m 2927.63,2161.33 c -12.62,2.1 -25.25,4.14 -37.84,6.35 -2.26,0.4 -2.91,-0.18 -3.25,-2.37 -1.87,-11.89 -3.84,-23.77 -5.94,-35.62 -0.4,-2.29 0.24,-2.88 2.39,-3.23 25.35,-4.15 50.7,-8.36 76.02,-12.66 2.19,-0.37 2.67,0.28 2.99,2.25 1.91,11.99 3.89,23.98 5.99,35.94 0.37,2.08 -0.11,2.71 -2.18,3.04 -12.74,2.02 -25.45,4.19 -38.18,6.3 z"
   id="path16"
   inkscape:connector-curvature="0"
   style="fill:#30b8a3" />
		</g>
		<g
   id="g26">
			<path
   class="st0"
   d="m 2439.57,1845.9 c -64.9,30.24 -113.19,79.7 -141.04,148.71 -1.86,4.61 -4.05,8.82 -9.38,9.89 -4.52,0.91 -8.48,-0.39 -11.56,-4.02 -3.28,-3.87 -3.16,-8.12 -1.43,-12.54 7.26,-18.6 16.21,-36.35 26.99,-53.16 23.56,-36.77 53.53,-67.41 90.72,-90.17 83.88,-51.33 172.46,-60.77 265.26,-27.36 7.82,2.81 10.98,8.82 8.46,15.53 -2.5,6.66 -8.83,9.09 -16.6,6.17 -47.21,-17.71 -95.64,-22.32 -145.32,-13.59 -22.05,3.87 -43.19,10.7 -66.1,20.54 z"
   id="path20"
   inkscape:connector-curvature="0"
   style="fill:#30b8a3" />
			<path
   class="st0"
   d="m 2473.53,1893.56 c 46.23,-19.67 101.01,-21.6 156.47,-1.45 3.39,1.23 6.35,2.86 8.07,6.24 2.22,4.37 1.8,9.31 -1.47,12.88 -3.4,3.72 -7.68,5.08 -12.52,3.39 -7.52,-2.62 -15.02,-5.31 -22.77,-7.19 -48,-11.66 -93.99,-6.34 -137.79,16.58 -42.25,22.11 -72.02,55.59 -90.08,99.62 -1.21,2.95 -2.29,5.94 -5.15,7.8 -4.51,2.94 -9.78,2.87 -13.8,-0.25 -4.18,-3.24 -5.55,-8.6 -3.37,-14.2 9.44,-24.24 22.71,-46.19 40.01,-65.62 20.88,-23.46 45.76,-41.51 82.4,-57.8 z"
   id="path22"
   inkscape:connector-curvature="0"
   style="fill:#30b8a3" />
			<path
   class="st0"
   d="m 2497.63,1968.67 c 34.38,-14.8 69.21,-15.96 104.51,-3.33 3.96,1.42 7.11,3.61 8.5,7.7 1.5,4.45 0.72,8.59 -2.66,11.89 -3.61,3.52 -7.93,4.41 -12.75,2.59 -14.46,-5.45 -29.43,-8.52 -44.85,-7.53 -49.1,3.13 -83.88,27.2 -103.97,72.23 -1.3,2.92 -2.4,5.88 -5.37,7.62 -4.75,2.78 -9.79,2.5 -13.75,-0.87 -3.96,-3.37 -5.23,-8.13 -3.16,-13.4 10.63,-27.12 27.95,-48.92 52.14,-65.2 6.74,-4.55 13.76,-8.62 21.36,-11.7 z"
   id="path24"
   inkscape:connector-curvature="0"
   style="fill:#30b8a3" />
		</g>
		<g
   id="g34">
			<path
   class="st0"
   d="m 3619.27,1693.62 c 21.64,26.1 32.62,56.15 32.28,90.01 -0.32,31.8 -10.45,60.31 -30.39,85.24 -8.3,10.37 -17.78,19.49 -28.7,26.96 -23.9,16.36 -50.33,24.83 -79.42,24.73 -11.02,-0.04 -21.87,-1.42 -32.59,-3.88 -6.91,-1.59 -9.63,-7.56 -6.02,-13.04 1.93,-2.93 5.14,-3.89 9.47,-2.99 4.17,0.87 8.34,1.79 12.55,2.38 28.05,3.89 54.38,-1.16 78.74,-15.66 31.82,-18.95 51.17,-46.87 58.1,-83.11 5.39,-28.15 1,-55.2 -12.81,-80.28 -16.15,-29.33 -40.48,-49.2 -72.69,-58.7 -31.77,-9.37 -62.74,-6.34 -91.83,9.25 -31.76,17.01 -52.18,43.49 -61.15,78.54 -2.86,11.18 -3.96,22.57 -3.39,34.11 0.17,3.58 -0.23,7.06 -3.54,9.14 -5.48,3.45 -12.22,-0.03 -12.61,-6.56 -1.14,-19.42 1.82,-38.23 8.62,-56.45 6.19,-16.56 15.17,-31.52 27.21,-44.36 26.23,-27.96 58.52,-43.34 97.05,-44.8 31.43,-1.19 60,7.52 85.66,25.71 9.53,6.77 18.05,14.67 25.46,23.76 z"
   id="path28"
   inkscape:connector-curvature="0"
   style="fill:#30b8a3" />
			<path
   class="st0"
   d="m 3587.22,1718.25 c 30.83,38.21 31.09,88.37 2.69,124.62 -3.91,4.99 -8.67,9.35 -13.29,13.72 -3.64,3.44 -8.93,3.15 -11.97,-0.2 -3.11,-3.42 -2.63,-8.84 1.31,-12.17 14.18,-11.98 23.13,-27.09 26.91,-45.22 3.99,-19.14 1.52,-37.5 -7.74,-54.73 -12.13,-22.57 -30.96,-36.57 -56,-41.72 -19.67,-4.04 -38.47,-1.03 -55.93,9.06 -4.18,2.42 -7.99,5.48 -11.95,8.27 -3.79,2.68 -8.19,2.45 -11.4,-0.65 -2.45,-2.36 -2.98,-7.58 -0.62,-10.39 1.67,-1.99 3.83,-3.64 5.97,-5.17 17.18,-12.27 36.26,-19.04 57.49,-19 23.71,0.04 44.92,7.36 63.1,22.77 4.54,3.87 8.68,8.2 11.43,10.81 z"
   id="path30"
   inkscape:connector-curvature="0"
   style="fill:#30b8a3" />
			<path
   class="st0"
   d="m 3526.33,1785.76 c -2.61,6.61 -7.25,10.79 -14.22,12.12 -7.68,1.46 -15.51,-2.36 -19.41,-9.38 -3.65,-6.56 -2.35,-15.45 2.91,-21.14 8.73,-9.45 24.45,-6.84 29.8,4.44 0.38,0.79 1.7,1.59 2.59,1.61 8.99,0.2 17.98,0.24 26.98,0.32 2,0.02 4,-0.03 6,0.05 3.97,0.16 6.54,2.7 6.47,6.28 -0.07,3.4 -2.78,6.07 -6.49,6.07 -7.53,-0.01 -15.07,-0.17 -22.6,-0.26 -4.01,-0.05 -8.01,-0.07 -12.03,-0.11 z"
   id="path32"
   inkscape:connector-curvature="0"
   style="fill:#30b8a3" />
		</g>
		<circle
   class="st0"
   cx="3224.96"
   cy="2728.1201"
   r="88.370003"
   id="circle36"
   style="fill:#30b8a3" />
		<circle
   class="st0"
   cx="2662.96"
   cy="2395.45"
   r="67.400002"
   id="circle38"
   style="fill:#30b8a3" />
		<circle
   class="st0"
   cx="2546.49"
   cy="2075.6799"
   r="43.939999"
   id="circle40"
   style="fill:#30b8a3" />
		<circle
   class="st0"
   cx="2769.1001"
   cy="2749.45"
   r="43.950001"
   id="circle42"
   style="fill:#30b8a3" />
		<circle
   class="st0"
   cx="1922.98"
   cy="2020.36"
   r="71.349998"
   id="circle44"
   style="fill:#30b8a3" />
		<circle
   class="st0"
   cx="1565.7"
   cy="2587.0901"
   r="91.150002"
   id="circle46"
   style="fill:#30b8a3" />
		<circle
   class="st0"
   cx="3509.0701"
   cy="1779.89"
   r="33.299999"
   id="circle48"
   style="fill:#30b8a3" />
		<path
   class="st0"
   d="M 2636.67,2809.58"
   id="path50"
   inkscape:connector-curvature="0"
   style="fill:#30b8a3" />
		<circle
   class="st0"
   cx="3344.4299"
   cy="2955.55"
   r="43.950001"
   id="circle52"
   style="fill:#30b8a3" />
		<circle
   class="st0"
   cx="2774.1499"
   cy="3213.96"
   r="27.379999"
   id="circle54"
   style="fill:#30b8a3" />
		<circle
   class="st0"
   cx="1689.6"
   cy="3044.6499"
   r="27.379999"
   id="circle56"
   style="fill:#30b8a3" />
		<g
   id="g62">
			<g
   id="g60">
				<path
   class="st0"
   d="m 2195.83,2321.06 c 2.75,1.59 5.68,2.95 8.22,4.82 6.05,4.45 8.28,10.9 9.29,18.1 2.4,17.08 5.08,34.12 7.55,51.19 0.4,2.76 1.55,4.26 4.29,5.3 7.76,2.95 15.39,6.24 23,9.58 2.17,0.95 3.66,0.78 5.6,-0.65 14.13,-10.45 28.38,-20.74 42.58,-31.12 11.57,-8.45 23.33,-7.55 33.22,2.62 13.21,13.58 26.43,27.15 39.62,40.74 8.97,9.24 9.78,19.3 2.44,29.8 -10.5,15 -20.91,30.07 -31.61,44.92 -2.05,2.84 -2.07,5.09 -0.87,8.04 2.96,7.28 5.88,14.59 8.46,22.01 0.9,2.59 2.22,3.8 4.8,4.25 16.84,2.97 33.66,6.03 50.49,9.03 2.78,0.5 5.62,0.69 8.37,1.3 8.09,1.77 14.87,9.99 14.81,18.52 -0.14,21.48 -0.43,42.96 -0.89,64.44 -0.2,9.48 -8.82,18.94 -18.32,20.43 -18.21,2.85 -36.44,5.6 -54.69,8.23 -3.37,0.49 -5.45,1.6 -6.72,5.06 -2.76,7.51 -5.95,14.88 -9.16,22.21 -1.02,2.32 -0.82,3.91 0.71,5.98 10.46,14.13 20.76,28.38 31.12,42.58 8.25,11.31 7.31,23.22 -2.63,32.9 -13.68,13.32 -27.36,26.64 -41.06,39.94 -9.02,8.75 -19.23,9.56 -29.46,2.39 -14.99,-10.51 -30.05,-20.94 -44.92,-31.62 -2.91,-2.09 -5.25,-2.3 -8.44,-0.94 -7.1,3.01 -14.27,5.88 -21.58,8.34 -3.03,1.02 -4.1,2.79 -4.6,5.55 -3.24,18.15 -6.51,36.29 -9.8,54.43 -1.94,10.71 -11.56,18.69 -22.47,18.57 -20.43,-0.24 -40.87,-0.53 -61.3,-0.85 -11.22,-0.18 -18.66,-7.62 -20.13,-18.6 -2.56,-19 -5.76,-37.92 -8.6,-56.88 -0.28,-1.86 -1.02,-2.82 -2.71,-3.51 -8.24,-3.35 -16.48,-6.72 -24.64,-10.28 -2.33,-1.02 -3.85,-0.13 -5.63,1.05 -15.38,10.2 -30.8,20.35 -46.2,30.52 -11,7.26 -20.93,6.25 -30.07,-3.14 -13.53,-13.89 -27.05,-27.79 -40.56,-41.7 -8.34,-8.59 -9.07,-19 -1.97,-28.63 11.05,-14.98 22.09,-29.97 33.28,-44.85 1.67,-2.22 1.9,-3.81 0.49,-6.23 -4.21,-7.23 -7.3,-14.98 -8.99,-23.16 -0.61,-2.94 -1.94,-3.87 -4.5,-4.32 -16.84,-2.96 -33.63,-6.22 -50.51,-8.9 -11.19,-1.78 -19.06,-6.99 -22.32,-18.22 -0.52,-1.77 -0.52,-3.53 -0.5,-5.31 0.27,-20.44 0.53,-40.87 0.85,-61.3 0.18,-11.16 7.59,-18.54 18.7,-20.04 18.71,-2.51 37.34,-5.61 56.01,-8.42 2.3,-0.35 3.36,-1.15 3.87,-3.78 1.58,-8.08 4.85,-15.62 9.38,-22.47 1.99,-3.01 1.63,-4.96 -0.37,-7.76 -10.49,-14.65 -20.75,-29.47 -31.06,-44.25 -6.99,-10.01 -6.4,-20.49 2.25,-29.1 14.91,-14.84 30.03,-29.46 45.21,-44.01 7.15,-6.85 18.1,-7.3 26.26,-1.3 15.12,11.11 30.24,22.23 45.15,33.61 2.83,2.16 5.04,2.12 7.99,0.93 7.28,-2.96 14.59,-5.89 22.01,-8.46 2.61,-0.91 3.78,-2.25 4.23,-4.83 2.97,-16.84 5.94,-33.68 9.09,-50.48 0.87,-4.62 0.75,-9.46 3.41,-13.73 3.09,-4.97 8.03,-7.16 12.93,-9.52 23.87,0.31 47.74,0.65 71.6,0.98 z m -185.56,265.91 c -1.19,81.66 63.14,147.86 144.83,149.05 81.64,1.19 147.87,-63.18 149.04,-144.85 1.17,-81.67 -63.16,-147.87 -144.84,-149.04 -81.68,-1.17 -147.84,63.13 -149.03,144.84 z"
   id="path58"
   inkscape:connector-curvature="0"
   style="fill:#30b8a3" />
			</g>
		</g>
	</g>
	<g
   class="st1"
   id="g90"
   style="display:none">
		<g
   class="st2"
   id="g88"
   style="display:inline">
			<g
   id="g72">
				<path
   class="st3"
   d="m 3229.3,1491.59 c -5.27,15.81 -21.08,26.35 -36.89,26.35 -15.81,0 -31.62,-10.54 -36.89,-26.35 l -65.86,-226.59 -65.87,226.59 c -5.27,15.81 -21.08,26.35 -36.89,26.35 -15.81,0 -31.62,-10.54 -36.89,-26.35 -13.17,-36.89 -113.3,-339.89 -113.3,-358.34 0,-21.08 18.44,-39.52 39.52,-39.52 15.81,0 31.62,10.54 36.89,26.35 l 73.78,231.86 65.87,-231.86 c 5.27,-15.81 18.44,-26.35 34.25,-26.35 15.81,0 31.62,10.54 34.25,26.35 l 65.87,231.86 73.78,-231.86 c 5.27,-15.81 21.08,-26.35 36.89,-26.35 21.08,0 39.52,18.44 39.52,39.52 5.27,18.45 -94.85,321.45 -108.03,358.34 z"
   id="path66"
   inkscape:connector-curvature="0"
   style="fill:#005b9d" />
				<path
   class="st3"
   d="m 3590.96,1520.57 c -118.57,0 -210.79,-94.85 -210.79,-213.42 0,-118.57 92.22,-213.42 210.79,-213.42 118.57,0 210.79,94.85 210.79,213.42 0,118.57 -89.58,213.42 -210.79,213.42 z m 0,-350.43 c -76.41,0 -129.11,60.6 -129.11,137.01 0,76.41 52.7,137.01 129.11,137.01 76.41,0 129.11,-60.6 129.11,-137.01 0,-76.41 -50.06,-137.01 -129.11,-137.01 z"
   id="path68"
   inkscape:connector-curvature="0"
   style="fill:#005b9d" />
				<path
   class="st3"
   d="m 4742.09,1178.05 h -189.71 v 89.58 h 108.03 c 21.08,0 39.52,18.44 39.52,39.52 0,21.08 -18.44,39.52 -39.52,39.52 h -108.03 v 131.74 c 0,23.71 -18.44,39.52 -42.16,39.52 -23.71,0 -42.16,-18.44 -42.16,-39.52 v -337.26 c 0,-23.71 18.44,-39.52 42.16,-39.52 h 229.23 c 21.08,0 39.52,18.44 39.52,39.52 2.64,21.09 -15.8,36.9 -36.88,36.9 z"
   id="path70"
   inkscape:connector-curvature="0"
   style="fill:#005b9d" />
			</g>
			<g
   id="g78">
				<path
   class="st3"
   d="m 4151.36,1182.39 h -113.3 v 297.73 c 0,23.71 -18.44,42.16 -42.16,42.16 -23.72,0 -39.52,-18.44 -39.52,-42.16 v -297.73 h -115.93 c -21.08,0 -39.52,-18.44 -39.52,-39.52 0,-21.08 15.81,-39.52 39.52,-39.52 h 308.27 c 21.08,0 39.52,18.44 39.52,39.52 2.65,23.71 -15.8,39.52 -36.88,39.52 z"
   id="path74"
   inkscape:connector-curvature="0"
   style="fill:#005b9d" />
				<path
   class="st3"
   d="m 4323.44,1517.94 c -23.71,0 -42.16,-18.44 -42.16,-42.16 v -339.89 c 0,-23.71 18.44,-42.16 42.16,-42.16 23.72,0 39.52,18.44 39.52,42.16 v 339.89 c 0.01,23.71 -18.44,42.16 -39.52,42.16 z"
   id="path76"
   inkscape:connector-curvature="0"
   style="fill:#005b9d" />
			</g>
			<g
   id="g86">
				<path
   class="st3"
   d="m 5036.96,1375.62 c 0,37.86 -0.29,75.72 0.13,113.58 0.18,16.47 -16.82,26.91 -33.45,28.42 -26.5,2.41 -45.48,-9.09 -47.86,-23.99 -0.9,-5.68 -1.84,-11.31 -1.84,-17 -0.05,-68.88 -0.15,-137.77 0.13,-206.65 0.03,-8.36 0.91,-16.84 8.44,-24.28 9.99,-9.89 29.6,-14.85 46.75,-11.27 16.84,3.52 27.64,13.54 27.67,26.04 0.08,38.38 0.03,76.76 0.03,115.15 z"
   id="path80"
   inkscape:connector-curvature="0"
   style="fill:#005b9d" />
				<path
   class="st3"
   d="m 5083.39,1227.37 c 19.61,-26.5 39,-53.18 58.95,-79.43 8.68,-11.42 0.45,-29.11 -12.1,-40.32 -20,-17.88 -41.19,-21.41 -50.81,-12.43 -3.67,3.42 -7.34,6.79 -10.29,10.78 -35.72,48.19 -71.49,96.35 -106.95,144.74 -4.31,5.88 -7.99,12.34 -5.81,22.15 2.89,13.02 16.05,28.47 31.65,36.44 15.32,7.82 29.18,7.41 35.68,-1.33 19.95,-26.82 39.8,-53.72 59.68,-80.6 z"
   id="path82"
   inkscape:connector-curvature="0"
   style="fill:#005b9d" />
				<path
   class="st3"
   d="m 4908.33,1227.37 c -19.61,-26.5 -39,-53.18 -58.95,-79.43 -8.68,-11.42 -0.45,-29.11 12.1,-40.32 20,-17.88 41.19,-21.41 50.81,-12.43 3.67,3.42 7.34,6.79 10.29,10.78 35.72,48.19 71.49,96.35 106.95,144.74 4.31,5.88 7.99,12.34 5.81,22.15 -2.89,13.02 -16.05,28.47 -31.65,36.44 -15.32,7.82 -29.18,7.41 -35.68,-1.33 -19.95,-26.82 -39.79,-53.72 -59.68,-80.6 z"
   id="path84"
   inkscape:connector-curvature="0"
   style="fill:#005b9d" />
			</g>
		</g>
	</g>
	<g
   id="Layer_3"
   class="st1"
   style="display:none">
		<g
   class="st2"
   id="g98"
   style="display:inline">
			<path
   class="st3"
   d="m 1924.42,2872.83 c -32.05,14.94 -55.9,39.36 -69.66,73.44 -0.92,2.28 -2,4.35 -4.63,4.88 -2.23,0.45 -4.19,-0.19 -5.71,-1.98 -1.62,-1.91 -1.56,-4.01 -0.71,-6.19 3.59,-9.19 8.01,-17.95 13.33,-26.26 11.64,-18.16 26.44,-33.29 44.81,-44.54 41.43,-25.35 85.17,-30.01 131.01,-13.51 3.86,1.39 5.42,4.36 4.18,7.67 -1.24,3.29 -4.36,4.49 -8.2,3.05 -23.32,-8.75 -47.24,-11.02 -71.77,-6.71 -10.89,1.91 -21.33,5.29 -32.65,10.15 z"
   id="path92"
   inkscape:connector-curvature="0"
   style="fill:#005b9d" />
			<path
   class="st3"
   d="m 1941.2,2896.36 c 22.83,-9.72 49.89,-10.67 77.28,-0.72 1.67,0.61 3.14,1.41 3.99,3.08 1.1,2.16 0.89,4.6 -0.72,6.36 -1.68,1.84 -3.79,2.51 -6.18,1.68 -3.72,-1.3 -7.42,-2.62 -11.25,-3.55 -23.71,-5.76 -46.42,-3.13 -68.05,8.19 -20.87,10.92 -35.57,27.45 -44.49,49.2 -0.6,1.46 -1.13,2.93 -2.55,3.85 -2.23,1.45 -4.83,1.42 -6.82,-0.13 -2.06,-1.6 -2.74,-4.25 -1.66,-7.01 4.66,-11.97 11.21,-22.81 19.76,-32.41 10.3,-11.58 22.59,-20.49 40.69,-28.54 z"
   id="path94"
   inkscape:connector-curvature="0"
   style="fill:#005b9d" />
			<path
   class="st3"
   d="m 1953.1,2933.46 c 16.98,-7.31 34.18,-7.88 51.62,-1.65 1.96,0.7 3.51,1.78 4.2,3.8 0.74,2.2 0.36,4.24 -1.31,5.87 -1.78,1.74 -3.92,2.18 -6.3,1.28 -7.14,-2.69 -14.54,-4.21 -22.15,-3.72 -24.25,1.55 -41.43,13.44 -51.35,35.67 -0.64,1.44 -1.18,2.9 -2.65,3.76 -2.35,1.38 -4.83,1.23 -6.79,-0.43 -1.96,-1.66 -2.58,-4.02 -1.56,-6.62 5.25,-13.39 13.8,-24.16 25.75,-32.2 3.32,-2.23 6.78,-4.24 10.54,-5.76 z"
   id="path96"
   inkscape:connector-curvature="0"
   style="fill:#005b9d" />
		</g>
		<circle
   class="st4"
   cx="2203.1499"
   cy="3246.6799"
   r="43.650002"
   id="circle100"
   style="display:inline;fill:#005b9d" />
		<path
   class="st5"
   d="m 1785.98,3238.88 249.2,-94.64 c 57.14,34.15 114.29,68.29 171.43,102.44"
   id="path102"
   inkscape:connector-curvature="0"
   style="display:inline;fill:none;stroke:#005b9d;stroke-width:5;stroke-miterlimit:10" />
		<circle
   class="st4"
   cx="2034.75"
   cy="3144.24"
   r="33.290001"
   id="circle104"
   style="display:inline;fill:#005b9d" />
		<line
   class="st5"
   x1="2034.75"
   y1="3144.24"
   x2="1977.23"
   y2="2986.3101"
   id="line106"
   style="display:inline;fill:none;stroke:#005b9d;stroke-width:5;stroke-miterlimit:10" />
		<circle
   class="st4"
   cx="1977.23"
   cy="2986.3101"
   r="21.700001"
   id="circle108"
   style="display:inline;fill:#005b9d" />
		<g
   class="st2"
   id="g116"
   style="display:inline">
			<g
   id="g112">
				<path
   class="st3"
   d="m 1798.42,3156.89 c 0.84,0.49 1.74,0.9 2.52,1.47 1.85,1.36 2.53,3.34 2.84,5.54 0.73,5.22 1.55,10.44 2.31,15.66 0.12,0.84 0.47,1.3 1.31,1.62 2.37,0.9 4.71,1.91 7.04,2.93 0.66,0.29 1.12,0.24 1.71,-0.2 4.32,-3.2 8.68,-6.35 13.02,-9.52 3.54,-2.59 7.14,-2.31 10.16,0.8 4.04,4.15 8.08,8.31 12.12,12.46 2.74,2.83 2.99,5.91 0.75,9.12 -3.21,4.59 -6.4,9.2 -9.67,13.74 -0.63,0.87 -0.63,1.56 -0.27,2.46 0.91,2.23 1.8,4.46 2.59,6.73 0.28,0.79 0.68,1.16 1.47,1.3 5.15,0.91 10.3,1.85 15.45,2.76 0.85,0.15 1.72,0.21 2.56,0.4 2.47,0.54 4.55,3.06 4.53,5.67 -0.04,6.57 -0.13,13.14 -0.27,19.71 -0.06,2.9 -2.7,5.79 -5.61,6.25 -5.57,0.87 -11.15,1.71 -16.73,2.52 -1.03,0.15 -1.67,0.49 -2.06,1.55 -0.84,2.3 -1.82,4.55 -2.8,6.79 -0.31,0.71 -0.25,1.2 0.22,1.83 3.2,4.32 6.35,8.68 9.52,13.03 2.52,3.46 2.24,7.1 -0.8,10.06 -4.19,4.07 -8.37,8.15 -12.56,12.22 -2.76,2.68 -5.88,2.93 -9.01,0.73 -4.59,-3.22 -9.19,-6.41 -13.74,-9.67 -0.89,-0.64 -1.61,-0.7 -2.58,-0.29 -2.17,0.92 -4.37,1.8 -6.6,2.55 -0.93,0.31 -1.26,0.85 -1.41,1.7 -0.99,5.55 -1.99,11.1 -3,16.65 -0.59,3.28 -3.54,5.72 -6.87,5.68 -6.25,-0.07 -12.5,-0.16 -18.75,-0.26 -3.43,-0.05 -5.71,-2.33 -6.16,-5.69 -0.78,-5.81 -1.76,-11.6 -2.63,-17.4 -0.09,-0.57 -0.31,-0.86 -0.83,-1.07 -2.52,-1.02 -5.04,-2.06 -7.54,-3.14 -0.71,-0.31 -1.18,-0.04 -1.72,0.32 -4.71,3.12 -9.42,6.23 -14.13,9.34 -3.36,2.22 -6.4,1.91 -9.2,-0.96 -4.14,-4.25 -8.28,-8.5 -12.41,-12.76 -2.55,-2.63 -2.78,-5.81 -0.6,-8.76 3.38,-4.58 6.76,-9.17 10.18,-13.72 0.51,-0.68 0.58,-1.17 0.15,-1.91 -1.29,-2.21 -2.23,-4.58 -2.75,-7.08 -0.19,-0.9 -0.59,-1.19 -1.38,-1.32 -5.15,-0.91 -10.29,-1.9 -15.45,-2.72 -3.42,-0.54 -5.83,-2.14 -6.83,-5.57 -0.16,-0.54 -0.16,-1.08 -0.15,-1.62 0.08,-6.25 0.16,-12.5 0.26,-18.75 0.05,-3.41 2.32,-5.67 5.72,-6.13 5.72,-0.77 11.42,-1.72 17.13,-2.57 0.7,-0.11 1.03,-0.35 1.18,-1.16 0.48,-2.47 1.48,-4.78 2.87,-6.87 0.61,-0.92 0.5,-1.52 -0.11,-2.37 -3.21,-4.48 -6.35,-9.01 -9.5,-13.54 -2.14,-3.06 -1.96,-6.27 0.69,-8.9 4.56,-4.54 9.19,-9.01 13.83,-13.46 2.19,-2.1 5.54,-2.23 8.03,-0.4 4.63,3.4 9.25,6.8 13.81,10.28 0.87,0.66 1.54,0.65 2.44,0.28 2.23,-0.9 4.46,-1.8 6.73,-2.59 0.8,-0.28 1.16,-0.69 1.3,-1.48 0.91,-5.15 1.82,-10.3 2.78,-15.44 0.26,-1.41 0.23,-2.9 1.04,-4.2 0.94,-1.52 2.46,-2.19 3.96,-2.91 7.3,0.08 14.6,0.18 21.9,0.28 z m -56.77,81.35 c -0.36,24.98 19.32,45.23 44.31,45.6 24.97,0.36 45.23,-19.33 45.59,-44.31 0.36,-24.98 -19.32,-45.24 -44.31,-45.59 -24.98,-0.37 -45.22,19.3 -45.59,44.3 z"
   id="path110"
   inkscape:connector-curvature="0"
   style="fill:#005b9d" />
			</g>
			<circle
   class="st6"
   cx="1785.98"
   cy="3238.8799"
   r="45.57"
   id="circle114"
   style="fill:#ffffff" />
		</g>
	</g>
	<g
   id="g131">
		<g
   id="g129">
			<path
   class="st0"
   d="m 2570.82,3004.74 c 14.19,-19.85 14.52,-39.76 0.75,-60.58 13.22,-6.69 26.17,-13.46 39.33,-19.8 5.63,-2.71 11.66,-4.67 17.6,-6.72 8.98,-3.1 17.03,-0.77 24.07,4.98 7.02,5.73 11.05,13.15 11.48,22.29 0.35,7.46 0.75,14.92 1.21,22.37 1.04,16.64 -5.59,29.82 -18.27,40.5 -13.79,11.61 -29.33,15.17 -46.85,10.65 -10.66,-2.73 -20.23,-7.68 -29.32,-13.69 z"
   id="path119"
   inkscape:connector-curvature="0"
   style="fill:#30b8a3" />
			<path
   class="st0"
   d="m 2503.27,2935.63 c -1.28,-2.09 -2.43,-3.89 -3.5,-5.73 -9.03,-15.49 -17.29,-31.3 -23.61,-48.12 -7.52,-20.01 10.9,-36.07 25.42,-36.95 8.14,-0.49 16.29,-0.83 24.43,-1.33 17.04,-1.06 30.49,5.6 41.36,18.22 11.65,13.52 15.19,28.75 10.65,45.88 -2.79,10.52 -7.81,19.95 -14.04,29.11 -9.03,-6.91 -19.03,-10.67 -30.31,-10.83 -11.18,-0.17 -21.2,3.21 -30.4,9.75 z"
   id="path121"
   inkscape:connector-curvature="0"
   style="fill:#30b8a3" />
			<path
   class="st0"
   d="m 2495.26,2943.22 c -14.29,21.33 -14.54,34.18 -1.47,59.88 -0.11,0.19 -0.18,0.44 -0.35,0.54 -17.61,10.44 -35.63,20.04 -55.16,26.64 -17.29,5.84 -32.09,-7.56 -35.27,-20.71 -1.29,-5.33 -1.41,-10.97 -1.76,-16.49 -0.6,-9.48 -1.32,-18.97 1.01,-28.36 4.18,-16.85 24.47,-34.32 41.95,-36.54 15.09,-1.92 28.55,2.5 41.48,9.42 3.2,1.72 6.28,3.68 9.57,5.62"
   id="path123"
   inkscape:connector-curvature="0"
   style="fill:#30b8a3" />
			<path
   class="st0"
   d="m 2501.63,3011.19 c 20.36,14.05 40.46,14.38 60.77,1.41 0.23,0.13 0.5,0.19 0.6,0.35 10.28,16.74 19.86,33.85 26.33,52.42 5.75,16.48 -2.98,32.44 -20.24,36.67 -6.05,1.48 -12.5,1.51 -18.79,1.89 -8.93,0.54 -17.87,1.03 -26.72,-1.1 -17.26,-4.17 -35.02,-24.26 -37.18,-41.62 -1.71,-13.74 2.02,-26.18 8.28,-38.13 2.11,-4.01 4.57,-7.82 6.95,-11.89 z"
   id="path125"
   inkscape:connector-curvature="0"
   style="fill:#30b8a3" />
			<path
   class="st0"
   d="m 2565.95,2973.02 c 0.56,17.72 -13.86,32.88 -31.86,33.49 -18.09,0.62 -33.64,-13.82 -34.09,-31.65 -0.45,-17.74 14.05,-32.82 32.05,-33.32 18,-0.5 33.34,13.74 33.9,31.48 z"
   id="path127"
   inkscape:connector-curvature="0"
   style="fill:#30b8a3" />
		</g>
	</g>
</g>
<g
   id="Layer_2"
   transform="translate(-1474.5499,-1644.0426)">
	<line
   class="st7"
   x1="2567.3101"
   y1="3007.97"
   x2="2774.1499"
   y2="3213.96"
   id="line134"
   style="fill:none;stroke:#30b8a3;stroke-width:5;stroke-miterlimit:10" />
	<path
   class="st7"
   d="M 2567.31,3007.97"
   id="path136"
   inkscape:connector-curvature="0"
   style="fill:none;stroke:#30b8a3;stroke-width:5;stroke-miterlimit:10" />
	<line
   class="st7"
   x1="2568.7"
   y1="2940.5901"
   x2="2774.1499"
   y2="2749.45"
   id="line138"
   style="fill:none;stroke:#30b8a3;stroke-width:5;stroke-miterlimit:10" />
	<path
   class="st7"
   d="m 3513.29,1770.69 -391.92,341.28 c 33.05,205.38 66.1,410.76 99.16,616.14"
   id="path140"
   inkscape:connector-curvature="0"
   style="fill:none;stroke:#30b8a3;stroke-width:5;stroke-miterlimit:10" />
	<path
   class="st7"
   d="m 2294.51,2535.72 369.32,-140.26 c 185.57,110.89 371.13,221.77 556.7,332.66 l 123.9,227.43"
   id="path142"
   inkscape:connector-curvature="0"
   style="fill:none;stroke:#30b8a3;stroke-width:5;stroke-miterlimit:10" />
	<line
   class="st7"
   x1="2662.96"
   y1="2395.45"
   x2="2546.49"
   y2="2075.6799"
   id="line144"
   style="fill:none;stroke:#30b8a3;stroke-width:5;stroke-miterlimit:10" />
	<line
   class="st7"
   x1="2103.1499"
   y1="2452.51"
   x2="1922.98"
   y2="2020.36"
   id="line146"
   style="fill:none;stroke:#30b8a3;stroke-width:5;stroke-miterlimit:10" />
	<line
   class="st7"
   x1="2010.59"
   y1="2588.5901"
   x2="1565.7"
   y2="2587.0901"
   id="line148"
   style="fill:none;stroke:#30b8a3;stroke-width:5;stroke-miterlimit:10" />
	<g
   id="g152">
		<line
   class="st7"
   x1="2254.21"
   y1="2699.76"
   x2="2498.8899"
   y2="2939.45"
   id="line150"
   style="fill:none;stroke:#30b8a3;stroke-width:5;stroke-miterlimit:10" />
	</g>
	<line
   class="st7"
   x1="2051.3501"
   y1="2690.6699"
   x2="1689.6"
   y2="3044.6499"
   id="line154"
   style="fill:none;stroke:#30b8a3;stroke-width:5;stroke-miterlimit:10" />
</g>
</svg>